#!OML:ASF E:\Steps\Project 1\Capture day 1\Session 2\Subject.ASF
:FULLY-SPECIFIED
:DEGREES
408
root 9.38112 16.4263 14.1418 -152.969 1.92346 179.032
lowerback -21.4553 -1.82559 -4.48871
upperback -3.3149 -0.674949 -0.445123
thorax 8.43486 -0.170176 1.9285
lowerneck -1.49209 -5.45472 0.994284
upperneck -4.73055 -7.17018 -0.0951383
head -1.24577 -3.54257 -0.143524
rclavicle 6.06293e-015 2.18663e-014
rhumerus -35.6995 -10.8483 -82.7846
rradius 30.7055
rwrist 3.72224
rhand -7.00193 -57.2224
rfingers 7.12502
rthumb -161.131 -266.327
lclavicle 6.06293e-015 2.18663e-014
lhumerus -31.859 -13.6556 87.5356
lradius 32.4272
lwrist 2.2863
lhand -23.4749 -15.2259
lfingers 7.12502
lthumb 2.98449 14.733
rfemur -29.698 8.56223 16.4462
rtibia 13.1504
rfoot -19.8815 -7.59376
rtoes -18.6298
lfemur -29.949 -8.25537 -18.1889
ltibia 16.435
lfoot -10.6953 9.03765
ltoes -45.6221
409
root 9.37181 16.4305 14.0875 -153.302 2.27504 179.294
lowerback -21.9129 -1.59219 -4.17703
upperback -3.12606 -0.427502 -0.464987
thorax 8.86831 -0.0616634 1.79665
lowerneck -1.27018 -5.63677 1.07843
upperneck -5.22938 -7.38401 0.272344
head -1.43068 -3.65063 -0.0278506
rclavicle 6.95746e-015 3.4191e-014
rhumerus -35.7908 -11.2338 -82.6221
rradius 30.2545
rwrist 3.5239
rhand -7.30872 -57.0756
rfingers 7.12502
rthumb -161.426 -266.209
lclavicle 6.95746e-015 3.4191e-014
lhumerus -31.9374 -13.4903 87.5455
lradius 32.056
lwrist 2.20318
lhand -22.4849 -14.0865
lfingers 7.12502
lthumb 3.94051 15.8569
rfemur -28.5556 8.47035 16.8139
rtibia 11.9866
rfoot -19.5046 -6.94562
rtoes -18.5303
lfemur -28.5516 -8.1855 -18.0852
ltibia 14.9173
lfoot -10.2313 9.41724
ltoes -46.0426
410
root 9.37009 16.4221 14.0673 -152.873 2.00199 179.388
lowerback -22.6528 -1.67293 -4.00641
upperback -3.23391 -0.501246 -0.407017
thorax 9.14803 -0.0769505 1.74179
lowerneck -1.55689 -5.49959 1.06203
upperneck -5.44587 -7.19672 -0.02344
head -1.461 -3.54428 -0.121937
rclavicle 1.39149e-015 -1.86858e-014
rhumerus -35.8804 -12.0009 -82.3017
rradius 29.7519
rwrist 3.83357
rhand -7.63081 -56.4534
rfingers 7.12502
rthumb -161.736 -265.616
lclavicle 1.39149e-015 -1.86858e-014
lhumerus -32.0245 -13.0544 87.4717
lradius 31.7637
lwrist 2.20709
lhand -21.4994 -13.6756
lfingers 7.12502
lthumb 4.89215 16.248
rfemur -28.4065 8.14114 16.996
rtibia 11.0353
rfoot -19.1426 -6.81786
rtoes -18.6216
lfemur -28.5188 -8.20674 -17.8949
ltibia 14.0527
lfoot -9.87408 9.22483
ltoes -46.4696
411
root 9.36477 16.4193 14.0341 -152.825 2.06846 179.473
lowerback -23.0384 -1.63833 -3.88971
upperback -3.34639 -0.435769 -0.41238
thorax 9.22358 -0.0281449 1.69008
lowerneck -1.32199 -5.65734 1.12476
upperneck -5.32824 -7.39917 0.440571
head -1.44819 -3.65947 0.0161615
rclavicle 6.4605e-015 -3.18055e-015
rhumerus -36.2543 -13.1654 -81.8075
rradius 29.368
rwrist 4.40712
rhand -7.72698 -55.8419
rfingers 7.12502
rthumb -161.828 -265.013
lclavicle 6.4605e-015 -3.18055e-015
lhumerus -32.3605 -12.6028 87.4135
lradius 31.433
lwrist 1.92154
lhand -21.4606 -13.7
lfingers 7.12502
lthumb 4.9296 16.2227
rfemur -27.8056 8.07003 17.1039
rtibia 9.99574
rfoot -18.7956 -6.635
rtoes -18.7896
lfemur -27.8485 -8.26173 -17.8518
ltibia 12.9193
lfoot -9.51282 9.32788
ltoes -47.0619
412
root 9.36288 16.4183 14.0051 -152.7 2.40974 179.463
lowerback -23.4259 -1.57723 -3.9684
upperback -3.51449 -0.274207 -0.454031
thorax 9.23385 0.0666332 1.74096
lowerneck -1.56683 -5.5604 1.11864
upperneck -5.45796 -7.26909 0.184793
head -1.45728 -3.58479 -0.067084
rclavicle -5.96354e-016 1.19271e-015
rhumerus -36.7874 -13.9485 -81.4048
rradius 29.3357
rwrist 4.48579
rhand -7.52061 -56.0555
rfingers 7.12502
rthumb -161.63 -265.208
lclavicle -5.96354e-016 1.19271e-015
lhumerus -32.696 -12.0891 87.3795
lradius 30.9924
lwrist 1.6424
lhand -21.654 -13.6073
lfingers 7.12502
lthumb 4.74292 16.3196
rfemur -27.4378 8.00406 17.0179
rtibia 9.06333
rfoot -18.3559 -6.24103
rtoes -18.8435
lfemur -27.3141 -8.38755 -17.8455
ltibia 11.8016
lfoot -9.38937 9.61712
ltoes -45.7757
413
root 9.36652 16.4164 13.9882 -152.551 2.42955 179.252
lowerback -23.6909 -1.65878 -4.23106
upperback -3.66034 -0.258797 -0.510723
thorax 9.2129 0.0859484 1.83589
lowerneck -1.58501 -5.44694 1.00437
upperneck -5.06728 -7.13402 0.181849
head -1.32524 -3.5218 -0.0584847
rclavicle 5.1684e-015 -5.1684e-015
rhumerus -37.2745 -14.5119 -81.1244
rradius 29.4346
rwrist 4.55423
rhand -7.15834 -56.5289
rfingers 7.12502
rthumb -161.281 -265.648
lclavicle 5.1684e-015 -5.1684e-015
lhumerus -32.889 -11.6786 87.3072
lradius 30.5233
lwrist 1.53231
lhand -21.7847 -13.6723
lfingers 7.12502
lthumb 4.61671 16.2574
rfemur -27.1561 7.71301 16.7976
rtibia 8.28927
rfoot -18.0184 -5.95684
rtoes -18.5982
lfemur -26.9635 -8.65059 -17.9388
ltibia 10.7791
lfoot -9.31807 9.59769
ltoes -43.444
414
root 9.36659 16.4065 13.9631 -152.384 2.28215 179.04
lowerback -23.9985 -1.80961 -4.41014
upperback -3.83155 -0.347154 -0.542158
thorax 9.19164 0.0625532 1.87886
lowerneck -1.58563 -5.573 1.08406
upperneck -5.2399 -7.28729 0.385009
head -1.3754 -3.59992 -0.00523734
rclavicle 5.96354e-016 -2.5842e-014
rhumerus -37.7885 -14.9712 -80.871
rradius 29.408
rwrist 4.63776
rhand -6.95261 -56.8823
rfingers 7.12502
rthumb -161.084 -265.983
lclavicle 5.96354e-016 -2.5842e-014
lhumerus -33.1736 -11.1152 87.1824
lradius 30.0956
lwrist 1.24265
lhand -22.1599 -13.6492
lfingers 7.12502
lthumb 4.25438 16.2881
rfemur -26.8164 7.47729 16.5986
rtibia 7.57579
rfoot -17.89 -5.86755
rtoes -18.0195
lfemur -26.6158 -8.85038 -18.1115
ltibia 9.87761
lfoot -9.12164 9.42396
ltoes -42.2171
415
root 9.35858 16.4003 13.9137 -152.794 2.56223 179.144
lowerback -24.3391 -1.67432 -4.2336
upperback -3.62818 -0.212077 -0.585994
thorax 9.58833 0.110684 1.77028
lowerneck -1.6449 -5.62133 1.12723
upperneck -5.49863 -7.33362 0.506336
head -1.44436 -3.62044 0.0280504
rclavicle 1.09332e-015 -1.19271e-014
rhumerus -37.92 -15.4644 -80.7336
rradius 29.1993
rwrist 4.72487
rhand -7.03765 -57.2975
rfingers 7.12502
rthumb -161.165 -266.406
lclavicle 1.09332e-015 -1.19271e-014
lhumerus -33.169 -10.2938 86.8965
lradius 29.5633
lwrist 0.785779
lhand -22.4239 -13.5423
lfingers 7.12502
lthumb 3.99945 16.3999
rfemur -25.7505 7.62802 16.6893
rtibia 6.6981
rfoot -17.7265 -5.52671
rtoes -16.7728
lfemur -25.2733 -9.06284 -18.1422
ltibia 8.66323
lfoot -9.01086 9.80658
ltoes -40.8315
416
root 9.35845 16.3968 13.8936 -152.882 2.49402 179.128
lowerback -24.4586 -1.73073 -4.25607
upperback -3.65607 -0.267033 -0.559004
thorax 9.62374 0.0875573 1.79616
lowerneck -1.31461 -5.30879 0.847021
upperneck -5.28531 -6.9381 0.344415
head -1.427 -3.42293 0.0262544
rclavicle -3.926e-015 -1.98785e-015
rhumerus -38.115 -16.1979 -80.384
rradius 28.9001
rwrist 5.15301
rhand -7.39959 -56.9588
rfingers 7.12502
rthumb -161.514 -266.1
lclavicle -3.926e-015 -1.98785e-015
lhumerus -33.2584 -9.49503 86.6898
lradius 28.9566
lwrist 0.506728
lhand -22.2936 -13.6154
lfingers 7.12502
lthumb 4.12527 16.3244
rfemur -25.1824 7.8947 16.601
rtibia 5.91551
rfoot -17.4314 -5.7549
rtoes -15.7908
lfemur -24.6934 -9.12236 -18.162
ltibia 7.86644
lfoot -8.72124 9.84185
ltoes -40.8544
